%TF.GenerationSoftware,KiCad,Pcbnew,8.0.7*%
%TF.CreationDate,2025-03-06T08:49:02-05:00*%
%TF.ProjectId,BuckConverter,4275636b-436f-46e7-9665-727465722e6b,rev?*%
%TF.SameCoordinates,Original*%
%TF.FileFunction,Paste,Top*%
%TF.FilePolarity,Positive*%
%FSLAX46Y46*%
G04 Gerber Fmt 4.6, Leading zero omitted, Abs format (unit mm)*
G04 Created by KiCad (PCBNEW 8.0.7) date 2025-03-06 08:49:02*
%MOMM*%
%LPD*%
G01*
G04 APERTURE LIST*
G04 Aperture macros list*
%AMRoundRect*
0 Rectangle with rounded corners*
0 $1 Rounding radius*
0 $2 $3 $4 $5 $6 $7 $8 $9 X,Y pos of 4 corners*
0 Add a 4 corners polygon primitive as box body*
4,1,4,$2,$3,$4,$5,$6,$7,$8,$9,$2,$3,0*
0 Add four circle primitives for the rounded corners*
1,1,$1+$1,$2,$3*
1,1,$1+$1,$4,$5*
1,1,$1+$1,$6,$7*
1,1,$1+$1,$8,$9*
0 Add four rect primitives between the rounded corners*
20,1,$1+$1,$2,$3,$4,$5,0*
20,1,$1+$1,$4,$5,$6,$7,0*
20,1,$1+$1,$6,$7,$8,$9,0*
20,1,$1+$1,$8,$9,$2,$3,0*%
G04 Aperture macros list end*
%ADD10RoundRect,0.250000X-0.350000X-0.450000X0.350000X-0.450000X0.350000X0.450000X-0.350000X0.450000X0*%
%ADD11RoundRect,0.250000X0.262500X0.450000X-0.262500X0.450000X-0.262500X-0.450000X0.262500X-0.450000X0*%
%ADD12RoundRect,0.250000X0.450000X-0.350000X0.450000X0.350000X-0.450000X0.350000X-0.450000X-0.350000X0*%
%ADD13RoundRect,0.250000X-0.375000X-0.625000X0.375000X-0.625000X0.375000X0.625000X-0.375000X0.625000X0*%
%ADD14RoundRect,0.250000X-0.250000X-0.475000X0.250000X-0.475000X0.250000X0.475000X-0.250000X0.475000X0*%
%ADD15R,0.609600X0.762000*%
%ADD16RoundRect,0.250000X-0.625000X0.400000X-0.625000X-0.400000X0.625000X-0.400000X0.625000X0.400000X0*%
%ADD17RoundRect,0.250000X0.375000X0.625000X-0.375000X0.625000X-0.375000X-0.625000X0.375000X-0.625000X0*%
%ADD18R,1.370000X1.910000*%
%ADD19RoundRect,0.200000X-0.200000X-0.275000X0.200000X-0.275000X0.200000X0.275000X-0.200000X0.275000X0*%
%ADD20RoundRect,0.250000X-0.650000X1.000000X-0.650000X-1.000000X0.650000X-1.000000X0.650000X1.000000X0*%
%ADD21R,1.701800X0.558800*%
%ADD22RoundRect,0.250000X0.350000X0.450000X-0.350000X0.450000X-0.350000X-0.450000X0.350000X-0.450000X0*%
%ADD23RoundRect,0.250000X-0.475000X0.337500X-0.475000X-0.337500X0.475000X-0.337500X0.475000X0.337500X0*%
%ADD24RoundRect,0.250000X0.250000X0.475000X-0.250000X0.475000X-0.250000X-0.475000X0.250000X-0.475000X0*%
%ADD25RoundRect,0.250000X-0.337500X-0.475000X0.337500X-0.475000X0.337500X0.475000X-0.337500X0.475000X0*%
%ADD26RoundRect,0.250000X-1.000000X-0.650000X1.000000X-0.650000X1.000000X0.650000X-1.000000X0.650000X0*%
%ADD27R,1.016000X1.193800*%
%TA.AperFunction,Profile*%
%ADD28C,0.050000*%
%TD*%
G04 APERTURE END LIST*
D10*
%TO.C,R6*%
X58762000Y-113518000D03*
X60762000Y-113518000D03*
%TD*%
D11*
%TO.C,R4*%
X143986500Y-105898000D03*
X142161500Y-105898000D03*
%TD*%
D12*
%TO.C,R10*%
X57222000Y-97246000D03*
X57222000Y-95246000D03*
%TD*%
D13*
%TO.C,D3*%
X58870000Y-116058000D03*
X61670000Y-116058000D03*
%TD*%
D14*
%TO.C,C10*%
X48652000Y-101580000D03*
X50552000Y-101580000D03*
%TD*%
%TO.C,C12*%
X48652000Y-106152000D03*
X50552000Y-106152000D03*
%TD*%
D15*
%TO.C,C9*%
X33274000Y-96748600D03*
X33274000Y-97815400D03*
%TD*%
D11*
%TO.C,R1*%
X148304500Y-110470000D03*
X146479500Y-110470000D03*
%TD*%
D16*
%TO.C,R12*%
X60524000Y-95458000D03*
X60524000Y-98558000D03*
%TD*%
D14*
%TO.C,C2*%
X130622000Y-117602000D03*
X132522000Y-117602000D03*
%TD*%
D17*
%TO.C,D4*%
X154380000Y-116464000D03*
X151580000Y-116464000D03*
%TD*%
D18*
%TO.C,C5*%
X142343000Y-91948000D03*
X145185000Y-91948000D03*
%TD*%
D19*
%TO.C,R2*%
X146567000Y-112756000D03*
X148217000Y-112756000D03*
%TD*%
D10*
%TO.C,R8*%
X28790000Y-100818000D03*
X30790000Y-100818000D03*
%TD*%
D14*
%TO.C,C11*%
X48652000Y-103866000D03*
X50552000Y-103866000D03*
%TD*%
D20*
%TO.C,D1*%
X80082000Y-91960000D03*
X80082000Y-95960000D03*
%TD*%
D12*
%TO.C,R11*%
X54428000Y-97246000D03*
X54428000Y-95246000D03*
%TD*%
D21*
%TO.C,U3*%
X39137200Y-94849000D03*
X39137200Y-96119000D03*
X39137200Y-97389000D03*
X39137200Y-98659000D03*
X49906800Y-98659000D03*
X49906800Y-97389000D03*
X49906800Y-96119000D03*
X49906800Y-94849000D03*
%TD*%
D22*
%TO.C,R7*%
X154488000Y-114026000D03*
X152488000Y-114026000D03*
%TD*%
D23*
%TO.C,C8*%
X35632000Y-96732500D03*
X35632000Y-98807500D03*
%TD*%
D22*
%TO.C,R13*%
X55428000Y-87102000D03*
X53428000Y-87102000D03*
%TD*%
D13*
%TO.C,D7*%
X57600000Y-87356000D03*
X60400000Y-87356000D03*
%TD*%
%TO.C,D5*%
X28644000Y-103358000D03*
X31444000Y-103358000D03*
%TD*%
D24*
%TO.C,C7*%
X46488000Y-101580000D03*
X44588000Y-101580000D03*
%TD*%
D17*
%TO.C,D2*%
X46430000Y-106152000D03*
X43630000Y-106152000D03*
%TD*%
D14*
%TO.C,C6*%
X32142000Y-106406000D03*
X34042000Y-106406000D03*
%TD*%
%TO.C,C1*%
X146479500Y-108184000D03*
X148379500Y-108184000D03*
%TD*%
D25*
%TO.C,C4*%
X71657000Y-95738000D03*
X73732000Y-95738000D03*
%TD*%
D22*
%TO.C,R5*%
X45776000Y-103866000D03*
X43776000Y-103866000D03*
%TD*%
D26*
%TO.C,D6*%
X55984000Y-91928000D03*
X59984000Y-91928000D03*
%TD*%
D27*
%TO.C,R9*%
X29121100Y-96774000D03*
X30822900Y-96774000D03*
%TD*%
D19*
%TO.C,R3*%
X146567000Y-105898000D03*
X148217000Y-105898000D03*
%TD*%
D28*
X18034000Y-35306000D02*
X163576000Y-35306000D01*
X163576000Y-184912000D01*
X18034000Y-184912000D01*
X18034000Y-35306000D01*
M02*
