%TF.GenerationSoftware,KiCad,Pcbnew,8.0.7*%
%TF.CreationDate,2025-03-06T08:50:23-05:00*%
%TF.ProjectId,BuckConverter,4275636b-436f-46e7-9665-727465722e6b,rev?*%
%TF.SameCoordinates,Original*%
%TF.FileFunction,Plated,1,2,PTH,Drill*%
%TF.FilePolarity,Positive*%
%FSLAX46Y46*%
G04 Gerber Fmt 4.6, Leading zero omitted, Abs format (unit mm)*
G04 Created by KiCad (PCBNEW 8.0.7) date 2025-03-06 08:50:23*
%MOMM*%
%LPD*%
G01*
G04 APERTURE LIST*
%TA.AperFunction,ViaDrill*%
%ADD10C,0.300000*%
%TD*%
%TA.AperFunction,ComponentDrill*%
%ADD11C,0.762000*%
%TD*%
%TA.AperFunction,ComponentDrill*%
%ADD12C,0.863600*%
%TD*%
%TA.AperFunction,ComponentDrill*%
%ADD13C,1.000000*%
%TD*%
%TA.AperFunction,ComponentDrill*%
%ADD14C,1.016000*%
%TD*%
%TA.AperFunction,ComponentDrill*%
%ADD15C,1.066800*%
%TD*%
%TA.AperFunction,ComponentDrill*%
%ADD16C,1.100000*%
%TD*%
%TA.AperFunction,ComponentDrill*%
%ADD17C,1.200000*%
%TD*%
%TA.AperFunction,ComponentDrill*%
%ADD18C,2.200000*%
%TD*%
%TA.AperFunction,ComponentDrill*%
%ADD19C,6.100000*%
%TD*%
G04 APERTURE END LIST*
D10*
X28702000Y-107696000D03*
X33020000Y-114554000D03*
X34036000Y-102108000D03*
X34290000Y-100076000D03*
X70104000Y-94234000D03*
D11*
%TO.C,U4*%
X33824000Y-109919000D03*
X36364000Y-109919000D03*
X43984000Y-109919000D03*
X49064000Y-109919000D03*
D12*
%TO.C,U1*%
X130556000Y-106172000D03*
X130556000Y-108712000D03*
X130556000Y-111252000D03*
X130556000Y-113792000D03*
X138176000Y-106172000D03*
X138176000Y-108712000D03*
X138176000Y-111252000D03*
X138176000Y-113792000D03*
D13*
%TO.C,U2*%
X89734000Y-125710000D03*
X89734000Y-128250000D03*
X92274000Y-125710000D03*
X92274000Y-128250000D03*
X94814000Y-125710000D03*
X94814000Y-128250000D03*
X97354000Y-125710000D03*
X97354000Y-128250000D03*
D14*
X27178000Y-125476000D03*
X27178000Y-130556000D03*
X27178000Y-133096000D03*
X27178000Y-135636000D03*
X27178000Y-140716000D03*
X27178000Y-143256000D03*
X27178000Y-145796000D03*
X27178000Y-148336000D03*
X27178000Y-150876000D03*
X27178000Y-155956000D03*
X27178000Y-158496000D03*
X27178000Y-161036000D03*
X27178000Y-163576000D03*
X27178000Y-166116000D03*
X27178000Y-171196000D03*
X29718000Y-125476000D03*
X29718000Y-171196000D03*
X32258000Y-125476000D03*
X32258000Y-171196000D03*
X37338000Y-125476000D03*
X37338000Y-128016000D03*
X37338000Y-168656000D03*
X37338000Y-171196000D03*
X39878000Y-125476000D03*
X39878000Y-128016000D03*
X39878000Y-168656000D03*
X39878000Y-171196000D03*
X42418000Y-125476000D03*
X42418000Y-128016000D03*
X42418000Y-168656000D03*
X42418000Y-171196000D03*
X44958000Y-125476000D03*
X44958000Y-128016000D03*
X44958000Y-168656000D03*
X44958000Y-171196000D03*
X47498000Y-125476000D03*
X47498000Y-128016000D03*
X47498000Y-168656000D03*
X47498000Y-171196000D03*
X50038000Y-125476000D03*
X50038000Y-128016000D03*
X50038000Y-168656000D03*
X50038000Y-171196000D03*
X52578000Y-125476000D03*
X52578000Y-128016000D03*
X52578000Y-168656000D03*
X52578000Y-171196000D03*
X55118000Y-125476000D03*
X55118000Y-128016000D03*
X55118000Y-168656000D03*
X55118000Y-171196000D03*
X57658000Y-125476000D03*
X57658000Y-128016000D03*
X57658000Y-168656000D03*
X57658000Y-171196000D03*
X60198000Y-125476000D03*
X60198000Y-128016000D03*
X60198000Y-168656000D03*
X60198000Y-171196000D03*
X100838000Y-125476000D03*
X100838000Y-128016000D03*
X100838000Y-168656000D03*
X100838000Y-171196000D03*
X103378000Y-125476000D03*
X103378000Y-128016000D03*
X103378000Y-168656000D03*
X103378000Y-171196000D03*
X105918000Y-125476000D03*
X105918000Y-128016000D03*
X105918000Y-168656000D03*
X105918000Y-171196000D03*
X108458000Y-125476000D03*
X108458000Y-128016000D03*
X108458000Y-168656000D03*
X108458000Y-171196000D03*
X110998000Y-125476000D03*
X110998000Y-128016000D03*
X110998000Y-168656000D03*
X110998000Y-171196000D03*
X113538000Y-125476000D03*
X113538000Y-128016000D03*
X113538000Y-168656000D03*
X113538000Y-171196000D03*
X116078000Y-125476000D03*
X116078000Y-128016000D03*
X116078000Y-168656000D03*
X116078000Y-171196000D03*
X118618000Y-125476000D03*
X118618000Y-128016000D03*
X118618000Y-168656000D03*
X118618000Y-171196000D03*
X121158000Y-125476000D03*
X121158000Y-128016000D03*
X121158000Y-168656000D03*
X121158000Y-171196000D03*
X123698000Y-125476000D03*
X123698000Y-128016000D03*
X123698000Y-168656000D03*
X123698000Y-171196000D03*
D15*
%TO.C,L1*%
X95758000Y-91948000D03*
X125120400Y-91948000D03*
D16*
%TO.C,Q1*%
X69160000Y-91928000D03*
X71700000Y-91928000D03*
X74240000Y-91928000D03*
D17*
%TO.C,C3*%
X71524220Y-107676000D03*
X79024220Y-107676000D03*
D18*
%TO.C,REF\u002A\u002A*%
X22000000Y-39500000D03*
X22000000Y-181000000D03*
X159000000Y-39500000D03*
X159500000Y-181000000D03*
D19*
%TO.C,J1*%
X32660000Y-52534000D03*
%TO.C,J4*%
X32660000Y-77534000D03*
%TO.C,J5*%
X75660000Y-52534000D03*
%TO.C,J3*%
X145660000Y-52534000D03*
%TO.C,J2*%
X145660000Y-77534000D03*
M02*
